Coordinates
version=1
nRows=29
nColumns=24
inDegrees=yes

Units are S.I. units (second, meters, Newtons, ...)
Angles are in degrees.

endheader
time	pelvis_tilt	pelvis_list	pelvis_rotation	pelvis_tx	pelvis_ty	pelvis_tz	hip_flexion_r	hip_adduction_r	hip_rotation_r	knee_angle_r	ankle_angle_r	subtalar_angle_r	mtp_angle_r	hip_flexion_l	hip_adduction_l	hip_rotation_l	knee_angle_l	ankle_angle_l	subtalar_angle_l	mtp_angle_l	lumbar_extension	lumbar_bending	lumbar_rotation
      0.81300000	     -2.13644752	     -3.17944239	      6.20312723	     -0.46982334	      0.91025790	      0.37133647	     13.39496721	      9.65136214	     -2.90694479	    -19.31906630	      7.63050128	     -4.40975883	      5.35259475	     18.50274992	     -7.80313232	     -3.74310421	    -71.37191253	     -4.96359625	     -7.31071456	      1.27773901	     -5.26459308	      5.01101782	     -2.29387281
      0.81716667	     -2.16816537	     -3.04802949	      6.03642015	     -0.46473638	      0.91122624	      0.37171864	     12.81840495	      9.59016746	     -2.71942199	    -18.86022993	      7.66720059	     -4.26237771	      5.35568291	     19.10202485	     -7.59530745	     -3.94553364	    -71.01738274	     -4.33738902	     -7.77959256	      1.27111466	     -5.30765932	      4.83635037	     -2.01176915
      0.82133333	     -2.17251941	     -2.89985169	      5.85803311	     -0.45957130	      0.91225335	      0.37211596	     12.18456808	      9.51195284	     -2.53199127	    -18.35927041	      7.73049378	     -4.11008018	      5.36435186	     19.62990013	     -7.38254177	     -4.17777575	    -70.56070163	     -3.79130813	     -8.18960084	      1.25019647	     -5.32330524	      4.64114532	     -1.60106138
      0.82550000	     -2.19134121	     -2.75691666	      5.66148464	     -0.45443521	      0.91322895	      0.37252790	     11.57405520	      9.43501119	     -2.33554609	    -17.86520791	      7.75103262	     -3.94405087	      5.37851945	     20.15666669	     -7.17581087	     -4.42072901	    -70.04281331	     -3.21566056	     -8.55007903	      1.21857602	     -5.33542324	      4.46236762	     -1.27495042
      0.82966667	     -2.21689788	     -2.61852716	      5.45652013	     -0.44930753	      0.91414819	      0.37296136	     10.97728352	      9.35884860	     -2.15326253	    -17.38053489	      7.76666770	     -3.78721620	      5.38493084	     20.67552649	     -6.98417051	     -4.68207188	    -69.46828773	     -2.62239177	     -8.88223228	      1.21030735	     -5.32455223	      4.27354880	     -1.13611055
      0.83383333	     -2.17591251	     -2.45144859	      5.23364647	     -0.44419182	      0.91518860	      0.37338882	     10.28902810	      9.25776362	     -1.91599460	    -16.86348869	      7.79512325	     -3.61720137	      5.39870164	     21.08045054	     -6.75522841	     -4.94478815	    -68.78776704	     -2.12437058	     -9.23152745	      1.18608607	     -5.45198021	      4.08208926	     -0.77949063
      0.83800000	     -2.14297292	     -2.29494968	      5.00295093	     -0.43904949	      0.91617466	      0.37383773	      9.60726934	      9.16184957	     -1.70864313	    -16.33786119	      7.81825983	     -3.45012480	      5.41546048	     21.47540682	     -6.55467863	     -5.23508411	    -68.04780574	     -1.63519572	     -9.52047697	      1.15769568	     -5.51457762	      3.88534119	     -0.42502592
      0.84216667	     -2.09856314	     -2.14666859	      4.76883902	     -0.43391892	      0.91713233	      0.37431158	      8.90844820	      9.07377896	     -1.49719385	    -15.79600693	      7.83927877	     -3.27690785	      5.43864392	     21.84522214	     -6.37222384	     -5.53318961	    -67.25477653	     -1.17607873	     -9.78251049	      1.11798951	     -5.60332159	      3.66337677	     -0.03725345
      0.84633333	     -2.06211030	     -1.98258224	      4.50887347	     -0.42882034	      0.91805033	      0.37477609	      8.23648962	      8.95917941	     -1.28074443	    -15.28995224	      7.83202371	     -3.09814069	      5.45739894	     22.19286245	     -6.16733950	     -5.84316495	    -66.38466971	     -0.70335748	    -10.01214662	      1.08858581	     -5.68426606	      3.47452994	      0.23704985
      0.85050000	     -1.99245356	     -1.83406776	      4.26314389	     -0.42370525	      0.91897273	      0.37525109	      7.50404632	      8.86230275	     -1.06773516	    -14.72788925	      7.85713972	     -2.91673285	      5.48713378	     22.49323398	     -5.98823701	     -6.14724559	    -65.46062774	     -0.29572727	    -10.20760367	      1.04269613	     -5.80291504	      3.26058174	      0.63925359
      0.85466667	     -1.93112093	     -1.67753244	      3.99437689	     -0.41861735	      0.91983935	      0.37572378	      6.79576430	      8.74784126	     -0.85069463	    -14.19303689	      7.86019626	     -2.73351276	      5.51754921	     22.77665460	     -5.80112971	     -6.46907881	    -64.47092030	      0.11909354	    -10.37143301	      0.99657283	     -5.91158923	      3.05460675	      0.98423317
      0.85883333	     -1.86084050	     -1.52460368	      3.72389286	     -0.41354566	      0.92066972	      0.37619218	      6.08029650	      8.63131648	     -0.64332945	    -13.65759784	      7.86365870	     -2.54393240	      5.54889977	     23.03332537	     -5.61833732	     -6.78990084	    -63.42323263	      0.50712396	    -10.50310189	      0.95130491	     -6.03200933	      2.85706370	      1.31993692
      0.86300000	     -1.78278710	     -1.37562544	      3.44795508	     -0.40847640	      0.92146326	      0.37665470	      5.35608346	      8.51280532	     -0.43728237	    -13.11773794	      7.86406430	     -2.34749080	      5.58407172	     23.26112569	     -5.44134489	     -7.11360746	    -62.31636541	      0.87187360	    -10.59953309	      0.90315488	     -6.15841394	      2.66349727	      1.67035983
      0.86716667	     -1.71914319	     -1.21798240	      3.14902428	     -0.40344156	      0.92218838	      0.37712129	      4.66867581	      8.37523436	     -0.23185641	    -12.61564625	      7.83557252	     -2.14515976	      5.60984036	     23.47938337	     -5.25629413	     -7.45508702	    -61.14482158	      1.22877462	    -10.66318888	      0.86955935	     -6.27539632	      2.46507517	      1.94269631
      0.87133333	     -1.63066725	     -1.07920071	      2.86750767	     -0.39840094	      0.92288753	      0.37757274	      3.93893971	      8.25433868	     -0.03902447	    -12.07552715	      7.84437480	     -1.93854503	      5.64219475	     23.66028835	     -5.08970744	     -7.77340918	    -59.92527341	      1.53638073	    -10.69233021	      0.82991616	     -6.41342916	      2.28332878	      2.29433187
      0.87550000	     -1.53983657	     -0.95988163	      2.59677842	     -0.39336733	      0.92351760	      0.37800930	      3.20222745	      8.14890331	      0.14406532	    -11.51977245	      7.87382860	     -1.72818463	      5.68763768	     23.83091112	     -4.94079213	     -8.07378203	    -58.66738119	      1.81200113	    -10.69212561	      0.77705509	     -6.55068447	      2.11366534	      2.70132978
      0.87966667	     -1.47397727	     -0.82175686	      2.29486691	     -0.38836968	      0.92406940	      0.37844515	      2.52458829	      8.01109560	      0.32374835	    -11.02482522	      7.85397027	     -1.51063026	      5.72186763	     23.99534712	     -4.77205419	     -8.40015778	    -57.33447451	      2.07464268	    -10.65405208	      0.73901827	     -6.66527722	      1.93401301	      2.98367569
      0.88383333	     -1.38113285	     -0.71762246	      2.02506742	     -0.38334884	      0.92457800	      0.37885617	      1.79279423	      7.90676943	      0.48325771	    -10.47549708	      7.89207373	     -1.27649452	      5.77301490	     24.12946680	     -4.63494631	     -8.68687849	    -55.97430513	      2.29434056	    -10.59360187	      0.68593427	     -6.80391882	      1.78571758	      3.37686644
      0.88800000	     -1.31017208	     -0.61092437	      1.74049474	     -0.37836015	      0.92500094	      0.37924802	      1.10618105	      7.78916946	      0.63927605	     -9.96390767	      7.90759181	     -1.03560485	      5.82892541	     24.26393357	     -4.49125333	     -8.97840222	    -54.55446296	      2.48769190	    -10.50652829	      0.63117143	     -6.91918614	      1.64021469	      3.72269076
      0.89216667	     -1.24132360	     -0.51112659	      1.45999573	     -0.37336818	      0.92535946	      0.37963047	      0.42572526	      7.67257545	      0.77770499	     -9.45750471	      7.93091644	     -0.78692725	      5.88176549	     24.38249451	     -4.35290215	     -9.26415897	    -53.08358446	      2.64269988	    -10.38645629	      0.58276720	     -7.02814396	      1.49894608	      4.03486806
      0.89633333	     -1.17725509	     -0.42469218	      1.18500983	     -0.36838332	      0.92563768	      0.37998853	     -0.24547683	      7.56330871	      0.90451939	     -8.95636953	      7.95959919	     -0.52248018	      5.94097833	     24.49247983	     -4.22268206	     -9.53172279	    -51.57176244	      2.76356286	    -10.24685314	      0.53151685	     -7.13510987	      1.37770297	      4.36656331
      0.90050000	     -1.13634100	     -0.33719684	      0.90089617	     -0.36340639	      0.92582997	      0.38034159	     -0.87131886	      7.44507307	      1.01937085	     -8.49379573	      7.95937545	     -0.26470007	      5.98281988	     24.60326933	     -4.09177615	     -9.80625722	    -50.00146292	      2.83675012	    -10.07443694	      0.49745466	     -7.20948108	      1.25168062	      4.61587075
      0.90466667	     -1.09109207	     -0.26906117	      0.63706599	     -0.35840989	      0.92595369	      0.38065963	     -1.51511605	      7.34303948	      1.11923222	     -8.00207613	      7.99396012	      0.01708073	      6.02581664	     24.69852738	     -3.97144478	    -10.05212593	    -48.39833094	      2.87859703	     -9.89876645	      0.46536809	     -7.28345810	      1.14560473	      4.89876320
      0.90883333	     -1.02714326	     -0.22664443	      0.39460123	     -0.35341124	      0.92601885	      0.38093481	     -2.18458318	      7.26382903	      1.19355058	     -7.50082539	      8.09362063	      0.34109523	      6.09852574	     24.76685487	     -3.86937271	    -10.26813208	    -46.77085449	      2.89556662	     -9.72554506	      0.41675769	     -7.38835767	      1.08328616	      5.28882735
      0.91300000	     -1.01851567	     -0.17325610	      0.13305642	     -0.34841690	      0.92596212	      0.38122222	     -2.76245378	      7.16589233	      1.26574080	     -7.06137383	      8.11509828	      0.61969804	      6.14476416	     24.86436057	     -3.75971910	    -10.50478851	    -45.07807201	      2.84588470	     -9.50244940	      0.38642344	     -7.41155611	      0.99538889	      5.51552666
      0.91716667	     -0.98789035	     -0.13549576	     -0.10891440	     -0.34339171	      0.92585933	      0.38146915	     -3.37798535	      7.08030473	      1.31920495	     -6.59818285	      8.18249336	      0.93512260	      6.19609022	     24.92482837	     -3.65825488	    -10.72112702	    -43.35823833	      2.76910937	     -9.28975414	      0.35614973	     -7.46814361	      0.93005274	      5.79506876
      0.92133333	     -0.96941016	     -0.11073904	     -0.33971373	     -0.33835733	      0.92566501	      0.38170105	     -3.97542626	      7.00594519	      1.36025131	     -6.14680282	      8.26605626	      1.26251686	      6.25095183	     24.98503260	     -3.56561092	    -10.92159571	    -41.60812202	      2.65763471	     -9.07388885	      0.32646171	     -7.50657477	      0.88046661	      6.07746479
      0.92550000	     -0.96348140	     -0.09395301	     -0.56369168	     -0.33330899	      0.92538688	      0.38190140	     -4.55273081	      6.93561529	      1.38631295	     -5.71073672	      8.36147341	      1.59871611	      6.30737062	     25.04098267	     -3.47625527	    -11.11798352	    -39.82469141	      2.51199300	     -8.85158368	      0.29887258	     -7.52887281	      0.84600057	      6.34909660
      0.92966667	     -0.94317235	     -0.09128354	     -0.76844054	     -0.32824849	      0.92505051	      0.38205038	     -5.14935429	      6.87558064	      1.39154213	     -5.27251650	      8.52201140	      2.00959313	      6.39567870	     25.07133150	     -3.38556635	    -11.27593189	    -38.02190265	      2.35203106	     -8.66014314	      0.26183648	     -7.58719823	      0.83371878	      6.68913926
